<?xml version="1.0" encoding="utf-8"?>
<!-- Generator: Adobe Illustrator 25.2.1, SVG Export Plug-In . SVG Version: 6.00 Build 0)  -->
<svg version="1.1" xmlns="http://www.w3.org/2000/svg" xmlns:xlink="http://www.w3.org/1999/xlink" x="0px" y="0px"
	 viewBox="0 0 2000 2000" style="enable-background:new 0 0 2000 2000;" xml:space="preserve">
<style type="text/css">
	.st0{fill:#EECCAA;}
	.st1{fill:#E5C7A5;}
	.st2{fill:#E5C5A1;stroke:#E5C6A3;stroke-width:0.378;}
	.st3{fill:#E5C49F;stroke:#E5C5A1;stroke-width:0.378;}
	.st4{fill:#E5C39D;}
	.st5{fill:#E5C49F;stroke:#E5C5A1;stroke-width:0.378;stroke-opacity:0;}
	.st6{fill:#E5C49F;fill-opacity:0.5098;stroke:#E5C5A1;stroke-width:0.378;stroke-opacity:0;}
	.st7{fill:#E5C39D;stroke:#E5C5A1;stroke-width:0.378;stroke-opacity:0;}
	.st8{fill:#EECCAA;stroke:#CC9933;stroke-width:0.378;stroke-opacity:0;}
	.st9{fill:#E5C49F;}
	.st10{fill:#E5C5A1;}
	.st11{fill:#E5C6A3;}
	.st12{fill:#E5C7A5;stroke:#E5C7A5;stroke-width:0.378;}
	.st13{fill:#E5C8A7;}
	.st14{fill:#FFFFFF;stroke:#000000;stroke-width:0.9449;}
</style>
<g id="Camada_1">
	<g>
		<g>
			<path class="st0" d="M212.2,110.2c-7.8,21.7-14.5,37.7-8.5,50l0.2,3.9l3.7,9.5c8.5,25.4,12.7,35.5,16.7,46.9
				c0.6,1.8,1.5,3.9,2.1,6.1c11.8,55.4,39.3,88.7,38.7,108.1l15.2,0.8c-0.1-0.5,0.8-1.9-1.6-7.3c-5.3-21.6-7.3-35.7-17.3-72.4
				c-2.8-10-4.8-19-9.6-26.9c-1.7-3-4-7.7-5.1-11.2c-3.6-15.4-11.2-43.4-16.9-59c-0.4-1.2-0.5-2.5-0.7-3.5
				c-0.4-5.1-1.5-9.6-2.4-14.2C223.7,126.8,219.9,115,212.2,110.2z"/>
			<path class="st0" d="M99.3,110.2c7.8,21.7,14.5,37.7,8.5,50l-0.2,3.9l-3.7,9.5C95.5,199,91.3,209,87.3,220.5
				c-0.6,1.8-1.5,3.9-2.1,6.1C73.4,282,45.9,315.3,46.5,334.7l-15.2,0.8c0.1-0.5-0.8-1.9,1.6-7.3c5.3-21.6,7.3-35.7,17.3-72.4
				c2.8-10,4.8-19,9.6-26.9c1.7-3,4-7.7,5.1-11.2c3.6-15.4,11.2-43.4,16.9-59c0.4-1.2,0.5-2.5,0.7-3.5c0.4-5.1,1.5-9.6,2.4-14.2
				C87.8,126.8,91.6,115,99.3,110.2z"/>
			<g>
				<path class="st0" d="M31.4,335.5c-2.7,8.1-3.3,18.6-5.5,25.1c-0.8,3.2-1.5,4.9-1,6.9c-2.2,12.9-3.5,17.6-8.2,29.8
					c0.7,0.5,2,2,4.9-3.2c5.7-10.2,6.8-15.2,9.3-27.7c0.7-3.2,3.1-7.6,9.6-9.9c4.4-1.8,6.1,0.1,9,5.3c4.5,6.8,7.4,10.2,12,8
					c-5.4-6.3-5.2-7.3-8.2-14.7c-1.9-5.1-0.4-10.8-6.7-20.5C44.5,334.2,33.6,333.3,31.4,335.5z"/>
				<path class="st0" d="M46.5,334.7c-1.2,9.8-2.9,13.4-9.4,23.4c-3.7,2.2-5.2,5.2-5.7,6.5c-0.2,0.5-0.5,1.5-0.7,2.6
					c-1.2,5.8-2,10.3-3.5,14.4l-2.4-14.1c-0.3-1.3,0-2.5,0.1-3.3c1.6-6.3,1.8-6.7,2.9-12.6c1.5-9.4,2.9-14.8,3.4-16.1
					C33.7,333.2,45.2,334.3,46.5,334.7z"/>
				<path class="st1" d="M27.2,381.6c1,7.2,0.9,8.1,1.4,14c1.8,0.1,3.3-1,3.1-5.1c0-1.4,0-3.1-0.3-4.7c0.2-3-0.5-7.4-1.1-10.8
					c0.1-1.8,0-4.9,0.4-7.9C30,370.5,28.9,376.5,27.2,381.6z"/>
			</g>
			<g>
				<path class="st0" d="M280.2,335.5c2.7,8.1,3.3,18.6,5.5,25.1c0.8,3.2,1.5,4.9,1,6.9c2.2,12.9,3.5,17.6,8.2,29.8
					c-0.7,0.5-2,2-4.9-3.2c-5.7-10.2-6.8-15.2-9.3-27.7c-0.7-3.2-3.1-7.6-9.6-9.9c-4.4-1.8-6.1,0.1-9,5.3c-4.5,6.8-7.4,10.2-12,8
					c5.4-6.3,5.2-7.3,8.2-14.7c1.9-5.1,0.4-10.8,6.7-20.5C267.1,334.2,277.9,333.3,280.2,335.5z"/>
				<path class="st0" d="M265,334.6c1.2,9.8,2.9,13.4,9.4,23.4c3.7,2.2,5.2,5.2,5.7,6.5c0.2,0.5,0.5,1.5,0.7,2.6
					c1.2,5.8,2,10.3,3.5,14.4l2.4-14.1c0.3-1.3,0-2.5-0.1-3.3c-1.6-6.3-1.8-6.7-2.9-12.6c-1.5-9.4-2.9-14.8-3.4-16.1
					C277.8,333.2,266.4,334.3,265,334.6z"/>
				<path class="st1" d="M284.3,381.6c-1,7.2-0.9,8.1-1.4,14c-1.8,0.1-3.3-1-3.1-5.1c0-1.4,0-3.1,0.3-4.7c-0.2-3,0.5-7.4,1.1-10.8
					c-0.1-1.8,0-4.9-0.4-7.9C281.6,370.5,282.6,376.5,284.3,381.6z"/>
			</g>
			<path class="st2" d="M77.2,228.6c-4.8,1.4-4.4-1.1-7.8-0.5c2.6,0.5-0.9,9,4.8,3.6C75.4,230.6,76,230.5,77.2,228.6z"/>
			<path class="st2" d="M234.3,228.6c4.8,1.4,4.4-1.1,7.8-0.5c-2.6,0.5,0.9,9-4.8,3.6C236.2,230.6,235.6,230.5,234.3,228.6z"/>
		</g>
		<g>
			<path class="st0" d="M155.8,330.9c1,0,1.7,0,2.8-0.3c16.6-17.5,36.5-22,54-24.5c-2.5-12.8-4-16.6-8.1-32.8
				c-2.1-9.2-1.4-6.6-6.2-24.6c-1.1-4.4-2.8-14.5-0.5-28.6c0.7-4.1,6.7-37.1,8.1-60.2c-5-17.2,0.3-19.9,6.7-49.6
				c-4.1-2.9-14.4-3.2-20.9-4.3c-2.1-0.3-4.3-1.2-4.9-1.5c-0.9-0.4-2.1-0.9-3.8-1.7c-4.4-2.2-9.1-6.1-11.5-10.8
				c-1.9-4.2-2.2-12.4-1.5-20.1c-3.6,3.1-12.4,7.4-14.2,7.4c-1.8,0-10.6-4.3-14.2-7.4c0.7,7.6,0.3,15.9-1.5,20.1
				c-2.4,4.6-7.1,8.6-11.5,10.8c-1.7,0.8-2.9,1.4-3.8,1.7c-0.7,0.3-2.8,1.2-4.9,1.5c-6.5,1-16.8,1.4-20.9,4.3
				c6.4,29.7,11.7,32.4,6.7,49.6c1.4,23.1,7.4,56.1,8.1,60.2c2.3,14.1,0.6,24.2-0.5,28.6c-4.8,18-4.1,15.4-6.2,24.6
				c-4.1,16.2-5.6,20-8.1,32.8c17.5,2.5,37.4,6.9,54,24.5C154,330.9,154.7,330.9,155.8,330.9z"/>
			<path class="st3" d="M156.8,111c3.7-3,5.2-4,9.3-5.7c-3.5,1.3-4.7,1.1-9,1.6c-4.4-0.5-5.6-0.2-9.1-1.6
				C152.1,107.1,153.6,108,156.8,111z"/>
			<path class="st4" d="M154.1,167.5c-2.7,23.3-19.6,25.6-28.2,24.4c-13.6-2.2-19-12.4-19.9-26.8c0.6,7.1,2.1,18.2,2.2,18.9
				C117.9,200.8,151.8,200.6,154.1,167.5z"/>
			<path class="st5" d="M106.4,169.4c-0.2-7.5,1.9-11.1,5-17.4c-1.3-1.1-1.7-1.8-2-3.4c-2.1,7.6-2.9,8.6-3.4,16.5L106.4,169.4z"/>
			<path class="st2" d="M157.7,248.3c0,1.3-0.6,2.6-2,2.6c-1.4-0.3-1.8-1.7-1.9-2.8c0.3-1.4,0.9-2,1.9-2.1
				C157.1,246.2,157.6,247.1,157.7,248.3z"/>
			<path class="st4" d="M203.4,184c0.1-0.7,1.6-11.8,2.2-18.9c-0.9,14.4-6.3,24.5-19.9,26.8c-8.7,1.1-25.5-1.2-28.2-24.4
				C159.8,200.6,193.7,200.8,203.4,184z"/>
			<path class="st5" d="M205.5,165.1c-0.5-7.9-1.2-8.9-3.4-16.5c-0.3,1.6-0.7,2.4-2,3.4c3.1,6.3,5.2,9.9,5,17.4L205.5,165.1z"/>
			<path class="st6" d="M123.2,163.3c-3.1,0-5.7,2.5-5.7,5.7c0,3.2,2.4,5.7,5.7,5.7c3.3,0,5.7-2.5,5.7-5.7
				C128.9,165.9,126.3,163.3,123.2,163.3z"/>
			<path class="st7" d="M123,167.1c-1,0-1.8,0.8-1.8,1.8s0.8,1.8,1.8,1.8c1,0,1.8-0.8,1.8-1.8C124.9,167.9,124.1,167.1,123,167.1z"
				/>
			<path class="st6" d="M187.9,163.3c3.1,0,5.7,2.5,5.7,5.7c0,3.2-2.4,5.7-5.7,5.7c-3.3,0-5.7-2.5-5.7-5.7
				C182.2,165.9,184.7,163.3,187.9,163.3z"/>
			<path class="st7" d="M188,167.1c1,0,1.8,0.8,1.8,1.8s-0.8,1.8-1.8,1.8c-1,0-1.8-0.8-1.8-1.8C186.2,167.9,187,167.1,188,167.1z"/>
			<path class="st3" d="M129.7,219.4c2.6,5.2,4.5,7.4,5.4,14c0.6,4.9-2.3,7.2-2.5,15.4c0,8.9,0.4,13.4,2.3,22.6
				c-3.2-10.1-4.5-18.7-2.5-35.2C132.9,229,132.4,226.6,129.7,219.4z"/>
			<path class="st3" d="M181.8,219.4c-2.6,5.2-4.5,7.4-5.4,14c-0.6,4.9,2.3,7.2,2.5,15.4c0,8.9-0.4,13.4-2.3,22.6
				c3.2-10.1,4.5-18.7,2.5-35.2C178.7,229,179.1,226.6,181.8,219.4z"/>
		</g>
		<g>
			<path class="st8" d="M130.2,41.6c-0.7-0.4-1.2-0.9-2.1-0.6c-3.6,1,0.8,8.6,1.5,12.3c0.7,2.7,0.6,5.2,1.4,6c0.8,0.5,1.7,0,2.1-0.9
				L130.2,41.6z"/>
			<path class="st4" d="M149.8,80.7l20-5.9c-0.3,4.2-0.2,8.2,0.2,10.7c-4.7-3.2-10.5-2.3-17.9-3.7L149.8,80.7z"/>
			<path class="st8" d="M178.3,58.4c0.4,1,1.3,1.4,2.1,0.9c0.9-0.8,0.7-3.3,1.4-6c0.7-3.7,5.1-11.3,1.5-12.3
				c-0.8-0.4-1.4,0.1-2.1,0.6L178.3,58.4z"/>
			<path class="st0" d="M155.8,82.4c2.2,0,2.8-0.1,3.7-0.5c4-1.5,10.7-6.1,15.5-13.2c2.9-3.8,5.7-22.1,6.6-28.4
				c2.7-21.9-5.1-40.5-25.9-40.4c-20.8-0.2-28.6,18.5-25.9,40.4c1,6.3,3.8,24.6,6.6,28.4c4.8,7.1,11.5,11.6,15.5,13.2
				C153,82.3,153.6,82.4,155.8,82.4z"/>
			<path class="st9" d="M161,0.4c13.6,2.3,18.9,13,20.6,24c1.4,10.3-0.3,19.7-2.5,30.9c-1.1,5.4-2.1,9.6-3.6,12.6
				c-1.5,2.7-5.2,6.8-8.4,9.3C178.7,70.7,188.7,6.9,161,0.4z"/>
			<path class="st10" d="M129.5,43.5c-3.9-3.1-0.2,4.1,0.2,5.1c1.1,1.7,0.7,3.7,0.9,4.7c0.2,1,0.3,1.4,0.6,1.8
				c0.5,0.7,0.1-1.5,1.2-1.8C132.6,51.2,130.6,47.2,129.5,43.5z"/>
			<path class="st10" d="M179.2,53.4c1,0.2,0.7,2.5,1.2,1.8c0.2-0.4,0.4-0.8,0.6-1.8c0.3-1-0.1-3,0.9-4.7c0.4-1,4.1-8.1,0.2-5.1
				C181,47.2,179,51.2,179.2,53.4z"/>
		</g>
		<g>
			<path class="st0" d="M164.3,394.3c1.5,10.4,1.8,11.4,2.4,17.3c1.3,20.6,2.1,29.6,4.7,44.6c0.7,4.3,2.4,32.6,5.5,45.5
				c0.4,2.3,0.2,8.6,0.2,10.2c-1.1,10.5-3.9,29.8,0.9,48.4c1.3,6.3,1.8,13.2,2.8,20.1c0.7,4.9,3.4,23.5,3.7,42.7
				c0.4,3.1-2.8,6.2-0.2,11.7c9.3-0.9,14.9,0.4,17.1,0.9c2.1-7.5-1.8-4.8-0.7-15.8c2.5-14.5,15.5-76.6,12-100.2
				c-1.8-9.3-3.6-20.5-4.6-29.9c-0.8-10-1.4-18-0.7-27.6c0.3-4.6,2.7-16.5,3.4-21c3.2-27.2,4.2-33.2,5.8-61
				c0.3-24.2,0.7-35.8-1.7-56.7c-0.8-7.4-1.2-11.1-2.5-17.4c-10.9-3.2-33.5,1.3-54,24.1C157.9,354.8,162.2,382.3,164.3,394.3z"/>
			<path class="st0" d="M153,330.2c-20.6-22.8-43.2-27.4-54-24.1c-1.2,6.4-1.7,10-2.5,17.4c-2.4,20.9-1.9,32.5-1.7,56.7
				c1.7,27.7,2.6,33.8,5.8,61c0.7,4.5,3,16.4,3.4,21c0.7,9.6,0.1,17.6-0.7,27.6c-1.1,9.5-2.8,20.7-4.6,29.9
				c-3.5,23.6,9.5,85.7,12,100.2c1.1,11-2.8,8.3-0.7,15.8c2.2-0.6,7.9-1.8,17.1-0.9c2.6-5.5-0.5-8.6-0.2-11.7
				c0.3-19.2,3-37.8,3.7-42.7c1-6.9,1.5-13.8,2.8-20.1c4.8-18.6,2-37.9,0.9-48.4c0-1.6-0.2-7.9,0.2-10.2c3.2-12.9,4.9-41.2,5.5-45.5
				c2.6-15,3.5-24,4.7-44.6c0.5-5.9,0.8-6.9,2.4-17.3C149.4,382.3,153.7,354.8,153,330.2z"/>
			<path class="st10" d="M187.4,469c5.9-0.7,13.9,9.6,14.9,10.2c0.9-1.5-13.5-10.6-13.9-16.2c-4.6,7.7-10.3,8.9-11.3,13.8
				C179,472.7,183,469.4,187.4,469z"/>
			<path class="st10" d="M184.3,490c3.1-0.2,7-0.5,7.3,1.8C189,491.7,187.6,491.3,184.3,490z"/>
			<path class="st10" d="M183.8,510.5c0.8,2.9,1,4.9,1.1,7.6c1.8-2.2,3.8-3.9,8.2-6.7c1.1-1,4.8-5.9,1-2c-3.2,2.4-7-0.1-12-3.2
				C182.1,506.9,183.9,509.7,183.8,510.5z"/>
			<path class="st11" d="M188.2,514.8c-3.2,3.1,0.8,15.4-1.1,52.3c0.5-34.6-2.2-45.1-2.2-50.2C184.8,516,188,514.5,188.2,514.8z"/>
			<path class="st10" d="M134.5,476.7c-1.1-4.8-6.8-6-11.3-13.8c-0.4,5.6-14.8,14.8-13.9,16.2c1-0.6,9-10.9,14.9-10.2
				C128.6,469.4,132.6,472.7,134.5,476.7z"/>
			<path class="st10" d="M119.9,491.9c0.3-2.3,4.2-2,7.3-1.8C123.9,491.3,122.5,491.7,119.9,491.9z"/>
			<path class="st10" d="M129.4,506c-5,3.2-8.8,5.6-12,3.2c-3.7-3.9,0,1,1,2c4.4,2.8,6.4,4.5,8.2,6.7c0.1-2.7,0.4-4.6,1.1-7.6
				C127.6,509.7,129.4,506.9,129.4,506z"/>
			<path class="st11" d="M126.6,516.8c0,5.2-2.6,15.6-2.2,50.2c-1.9-36.9,2.1-49.2-1.1-52.3C123.5,514.5,126.7,516,126.6,516.8z"/>
			<path class="st9" d="M153,330.6c-14.6-20.8-29.3-33.1-38-32.3c9.5-0.7,29,20.7,33.6,35.8c1.3,4.2,3.6,19,3.3,26.3
				C152.8,349.4,153,340.6,153,330.6z"/>
			<path class="st9" d="M158.6,330.6c14.6-20.8,29.3-33.1,38-32.3c-9.5-0.7-29,20.7-33.6,35.8c-1.3,4.2-3.6,19-3.3,26.3
				C158.7,349.4,158.5,340.6,158.6,330.6z"/>
			<g>
				<path class="st0" d="M127.2,634.8c1,9,2.9,9.9,4,14.4c2.2,5,2.5,5.5,2.8,8.6c0.2,5-9,4.4-13.7,3.7c-4.9,0.2-9.3,1.4-18.7-1.2
					c-2.5-1.7,0-5.3,0.6-6.1c4.1-5.6,8-15.6,7.9-18.5C113.2,633.9,121.9,633.4,127.2,634.8z"/>
				<path class="st10" d="M133.1,654.9c-2.7-1.4-5.8-1.8-9.2-0.5c-1.7,0.8-2.6,2.2-3.3,3.8c0-2-0.9-3-3.6-3.4
					C122.6,652.3,130,652.2,133.1,654.9z"/>
				<path class="st10" d="M122.3,661.8c-0.7-0.1-1.8-0.2-2.1-0.3c-10.7,1.2-15.8-0.4-18.7-1.2c3.2,0.6,1.2-3.2,3-5.1
					c-0.7,1.4-0.6,3.1-0.4,4c0.2,1.3,1.3,1.8,3.1,1.7c0.5-1.4,0.1-3.6,2.6-4.8c-1.4,1.2-2.9,4.2-0.6,5.1c0.8,0.3,3.1,0.5,4-0.3
					c0.8-0.6,0.2-2.8,2.1-4.1c-1.1,1.4-1.3,2.1-1.1,3c0,0.6,0.8,1.5,1.5,1.5c2.1,0.2,3.4,0.4,5-1.8
					C121.1,660.4,121.5,661.1,122.3,661.8z"/>
			</g>
			<g>
				<path class="st0" d="M201.5,635.8c-0.1,2.9,3.9,12.9,7.9,18.5c0.6,0.8,3.1,4.3,0.6,6.1c-9.4,2.5-13.8,1.4-18.7,1.2
					c-4.6,0.7-13.8,1.3-13.7-3.7c0.3-3.1,0.5-3.6,2.8-8.6c1-4.5,3-5.4,4-14.4C189.6,633.4,198.4,633.9,201.5,635.8z"/>
				<path class="st10" d="M194.6,654.8c-2.7,0.3-3.6,1.4-3.6,3.4c-0.8-1.7-1.7-3-3.3-3.8c-3.3-1.3-6.5-0.9-9.2,0.5
					C181.5,652.2,188.9,652.3,194.6,654.8z"/>
				<path class="st10" d="M190.9,659.6c1.6,2.2,2.9,2,5,1.8c0.7,0,1.4-0.9,1.5-1.5c0.2-0.9,0-1.6-1.1-3c1.9,1.3,1.3,3.5,2.1,4.1
					c0.9,0.8,3.2,0.6,4,0.3c2.3-0.9,0.8-3.9-0.6-5.1c2.5,1.1,2.1,3.3,2.6,4.8c1.8,0.1,2.9-0.4,3.1-1.7c0.1-1,0.2-2.7-0.4-4
					c1.8,1.9-0.3,5.7,3,5.1c-3,0.8-8,2.4-18.7,1.2c-0.2,0-1.3,0.2-2.1,0.3C190.1,661.1,190.5,660.4,190.9,659.6z"/>
			</g>
		</g>
	</g>
	<g>
		<g>
			<path class="st0" d="M438.7,330.9c1,0,1.7,0,2.8-0.3c16.6-17.5,36.5-22,54-24.5c-2.5-12.8-4-16.6-8.1-32.8
				c-2.1-9.2-1.4-6.6-6.2-24.6c-1.1-4.4-2.8-14.5-0.5-28.6c0.7-4.1,6.7-37.1,8.1-60.2c-5-17.2,0.3-19.9,6.7-49.6
				c-4.1-2.9-14.4-3.2-20.9-4.3c-2.1-0.3-4.3-1.2-4.9-1.5c-0.9-0.4-2.1-0.9-3.8-1.7c-4.4-2.2-9.1-6.1-11.5-10.8
				c-1.9-4.2-2.2-12.4-1.5-20.1c-3.6,3.1-12.4,7.4-14.2,7.4c-1.8,0-10.6-4.3-14.2-7.4c0.7,7.6,0.3,15.9-1.5,20.1
				c-2.4,4.6-7.1,8.6-11.5,10.8c-1.7,0.8-2.9,1.4-3.8,1.7c-0.7,0.3-2.8,1.2-4.9,1.5c-6.5,1-16.8,1.4-20.9,4.3
				c6.4,29.7,11.7,32.4,6.7,49.6c1.4,23.1,7.4,56.1,8.1,60.2c2.3,14.1,0.6,24.2-0.5,28.6c-4.8,18-4.1,15.4-6.2,24.6
				c-4.1,16.2-5.6,20-8.1,32.8c17.5,2.5,37.4,6.9,54,24.5C436.9,330.9,437.6,330.9,438.7,330.9z"/>
			<path class="st11" d="M419.2,136.7c-0.6,15.3-4.5,22.9-16.5,32.2C416.6,163.2,422.8,151.4,419.2,136.7z"/>
			<path class="st11" d="M458.1,136.7c0.6,15.3,4.5,22.9,16.5,32.2C460.7,163.2,454.5,151.4,458.1,136.7z"/>
			<path class="st11" d="M411.3,285.8c4,0.9,5.4,1.1,9.4,1.2C420.2,291,410.8,289.7,411.3,285.8z"/>
			<path class="st11" d="M466,285.8c-4,0.9-5.4,1.1-9.4,1.2C457.1,291,466.5,289.7,466,285.8z"/>
		</g>
		<g>
			<g>
				<path class="st12" d="M410,634.8c1,9,2.9,9.9,4,14.4c2.2,5,2.5,5.5,2.8,8.6c0.2,5-9,4.4-13.7,3.7c-4.9,0.2-9.3,1.4-18.7-1.2
					c-2.5-1.7,0-5.3,0.6-6.1c4.1-5.6,8-15.6,7.9-18.5C396.1,633.9,404.8,633.4,410,634.8z"/>
				<path class="st0" d="M410,629.2c-2.6,5,2.3,14.1,2.8,17.5c5.1,20.1-24.6,18.9-24.7,6.6c1.4-6,1.7-1.7,4.6-11.8
					c0.7-3.9,0.3-11.8,0.7-13.8C397.6,625.3,406.3,627.4,410,629.2z"/>
			</g>
			<g>
				<path class="st12" d="M484.4,635.8c-0.1,2.9,3.9,12.9,7.9,18.5c0.6,0.8,3.1,4.3,0.6,6.1c-9.4,2.5-13.8,1.4-18.7,1.2
					c-4.6,0.7-13.8,1.3-13.7-3.7c0.3-3.1,0.5-3.6,2.8-8.6c1-4.5,3-5.4,4-14.4C472.5,633.4,481.2,633.9,484.4,635.8z"/>
				<path class="st0" d="M483.9,627.6c0.5,2,0,9.9,0.7,13.8c2.9,10.1,3.2,5.8,4.6,11.8c-0.1,12.3-29.8,13.6-24.7-6.6
					c0.5-3.4,5.3-12.5,2.8-17.5C471,627.4,479.7,625.3,483.9,627.6z"/>
			</g>
			<path class="st0" d="M435.9,330.2c-20.6-22.8-43.2-27.4-54-24.1c-1.2,6.4-1.7,10-2.5,17.4c-2.4,20.9-1.9,32.5-1.7,56.7
				c1.7,27.7,2.6,33.8,5.8,61c0.7,4.5,3,16.4,3.4,21c0.7,9.6,0.1,17.6-0.7,27.6c-1.1,9.5-2.8,20.7-4.6,29.9
				c-3.5,23.6,9.5,85.7,12,100.2c1.1,11-2.8,8.3-0.7,15.8c2.2-0.6,7.9-1.8,17.1-0.9c2.6-5.5-0.5-8.6-0.2-11.7
				c0.3-19.2,3-37.8,3.7-42.7c1-6.9,1.5-13.8,2.8-20.1c4.8-18.6,2-37.9,0.9-48.4c0-1.6-0.2-7.9,0.2-10.2c3.2-12.9,4.9-41.2,5.5-45.5
				c2.6-15,3.5-24,4.7-44.6c0.5-5.9,0.8-6.9,2.4-17.3C432.2,382.3,436.6,354.8,435.9,330.2z"/>
			<path class="st0" d="M447.1,394.3c1.5,10.4,1.8,11.4,2.4,17.3c1.3,20.6,2.1,29.6,4.7,44.6c0.7,4.3,2.4,32.6,5.5,45.5
				c0.4,2.3,0.2,8.6,0.2,10.2c-1.1,10.5-3.9,29.8,0.9,48.4c1.3,6.3,1.8,13.2,2.8,20.1c0.7,4.9,3.4,23.5,3.7,42.7
				c0.4,3.1-2.8,6.2-0.2,11.7c9.3-0.9,14.9,0.4,17.1,0.9c2.1-7.5-1.8-4.8-0.7-15.8c2.5-14.5,15.5-76.6,12-100.2
				c-1.8-9.3-3.6-20.5-4.6-29.9c-0.8-10-1.4-18-0.7-27.6c0.3-4.6,2.7-16.5,3.4-21c3.2-27.2,4.2-33.2,5.8-61
				c0.3-24.2,0.7-35.8-1.7-56.7c-0.8-7.4-1.2-11.1-2.5-17.4c-10.9-3.2-33.5,1.3-54,24.1C440.7,354.8,445.1,382.3,447.1,394.3z"/>
			<path class="st13" d="M383.2,558c5.6,37.9,9.6,55.5,10.4,61.9c1.2,10.9-2.9,8.3-0.7,15.8c0.3,5.8-2.7,11.6-1.2,16.6
				c0.7,4.4,2.9,3.5,5.6,0.3c2-2.7,2.9-10.4,2.2-20.8C398.6,613.7,395.3,600.3,383.2,558z"/>
			<path class="st13" d="M494.1,558c-5.6,37.9-9.6,55.5-10.4,61.9c-1.2,10.9,2.9,8.3,0.7,15.8c-0.3,5.8,2.7,11.6,1.2,16.6
				c-0.7,4.4-2.9,3.5-5.6,0.3c-2-2.7-2.9-10.4-2.2-20.8C478.7,613.7,482,600.3,494.1,558z"/>
			<path class="st11" d="M409.7,495.6c-5.2-1.9-8-1.9-13.2,0C401.7,497,402.8,501.2,409.7,495.6z"/>
			<path class="st11" d="M467.6,495.6c5.2-1.9,8-1.9,13.2,0C475.6,497,474.5,501.2,467.6,495.6z"/>
			<path class="st11" d="M438.6,330.4c6.6,19.4,34.9,27.3,55.1,5.3c-16.7,15.3-55,19.1-55.1-22.3c-0.1,41.4-38.3,37.6-55.1,22.3
				C403.7,357.7,432,349.8,438.6,330.4z"/>
			<path class="st1" d="M436.1,333.9c-0.4,2.6-0.1,5.8-0.3,8.6c-4.7,0.9-7.5,0.8-12,2.5C429.1,341.9,432.2,338.5,436.1,333.9z"/>
			<path class="st1" d="M441.2,333.9c0.4,2.6,0.1,5.8,0.3,8.6c4.7,0.9,7.5,0.8,12,2.5C448.2,341.9,445.1,338.5,441.2,333.9z"/>
			<path class="st1" d="M464.1,582.9c5.3,29.7,13.7,51.5,6.6,68.6c-1.3,3.1-2.6,2-4.8,0.5c-0.9-0.5-1.8-3.3-1.6-4.2
				c-0.4-3.1,2.5-4.6,2.9-13.1c-2.6-5.8,0.6-8.4,0.2-11.8C467.2,610.1,466.3,600.7,464.1,582.9z"/>
			<path class="st1" d="M413.2,582.9c-5.3,29.7-13.7,51.5-6.6,68.6c1.3,3.1,2.6,2,4.8,0.5c0.9-0.5,1.8-3.3,1.6-4.2
				c0.4-3.1-2.5-4.6-2.9-13.1c2.6-5.8-0.6-8.4-0.2-11.8C410.1,610.1,411,600.7,413.2,582.9z"/>
		</g>
		<g>
			<path class="st0" d="M495.1,110.2c-7.8,21.7-14.5,37.7-8.5,50l0.2,3.9l3.7,9.5c8.5,25.4,12.7,35.5,16.7,46.9
				c0.6,1.8,1.5,3.9,2.1,6.1c11.8,55.4,39.3,88.7,38.7,108.1l15.2,0.8c-0.1-0.5,0.8-1.9-1.6-7.3c-5.3-21.6-7.3-35.7-17.3-72.4
				c-2.8-10-4.8-19-9.6-26.9c-1.7-3-4-7.7-5.1-11.2c-3.6-15.4-11.2-43.4-16.9-59c-0.4-1.2-0.5-2.5-0.7-3.5
				c-0.4-5.1-1.5-9.6-2.4-14.2C506.6,126.8,502.8,115,495.1,110.2z"/>
			<path class="st0" d="M382.2,110.2c7.8,21.7,14.5,37.7,8.5,50l-0.2,3.9l-3.7,9.5c-8.5,25.4-12.7,35.5-16.7,46.9
				c-0.6,1.8-1.5,3.9-2.1,6.1c-11.8,55.4-39.3,88.7-38.7,108.1l-15.2,0.8c0.1-0.5-0.8-1.9,1.6-7.3c5.3-21.6,7.3-35.7,17.3-72.4
				c2.8-10,4.8-19,9.6-26.9c1.7-3,4-7.7,5.1-11.2c3.6-15.4,11.2-43.4,16.9-59c0.4-1.2,0.5-2.5,0.7-3.5c0.4-5.1,1.5-9.6,2.4-14.2
				C370.7,126.8,374.5,115,382.2,110.2z"/>
			<g>
				<path class="st13" d="M314.2,335.5c-2.7,8.1-3.3,18.6-5.5,25.1c-0.8,3.2-1.5,4.9-1,6.9c-2.2,12.9-3.5,17.6-8.2,29.8
					c0.7,0.5,2,2,4.9-3.2c5.7-10.2,6.8-15.2,9.3-27.7c0.7-3.2,3.1-7.6,9.6-9.9c4.4-1.8,6.1,0.1,9,5.3c4.5,6.8,7.4,10.2,12,8
					c-5.4-6.3-5.2-7.3-8.2-14.7c-1.9-5.1-0.3-10.8-6.7-20.5C327.4,334.2,316.5,333.3,314.2,335.5z"/>
				<path class="st0" d="M329.4,334.7c-1.2,9.8-2.9,13.4-9.4,23.4c-3.7,2.2-5.2,5.2-5.7,6.5c-0.2,0.5-0.5,1.5-0.7,2.6
					c-1.2,5.8-2,10.3-3.5,14.4l-2.4-14.1c-0.3-1.3,0-2.5,0.1-3.3c1.6-6.3,1.8-6.7,2.9-12.6c1.5-9.4,2.9-14.8,3.4-16.1
					C316.6,333.2,328.1,334.3,329.4,334.7z"/>
				<path class="st0" d="M310.1,381.6c1,7.2,0.9,8.1,1.4,14c1.8,0.1,3.3-1,3.1-5.1c0-1.4,0-3.1-0.3-4.7c0.2-3-0.5-7.4-1.1-10.8
					c0.1-1.8,0-4.9,0.4-7.9C312.9,370.5,311.8,376.5,310.1,381.6z"/>
			</g>
			<path class="st10" d="M520.8,229.3l4.6,5.7c-0.3,2.5-3,2.4-5,0.9c-0.1-3.9-2.7-5.9-2.8-9.8L520.8,229.3z"/>
			<path class="st10" d="M355.9,229.3l-4.6,5.7c0.3,2.5,3,2.4,5,0.9c0.1-3.9,2.7-5.9,2.8-9.8L355.9,229.3z"/>
			<g>
				<path class="st13" d="M547.9,334.7c-6.4,9.7-4.8,15.5-6.7,20.5c-3,7.4-2.8,8.3-8.2,14.7c4.5,2.2,7.4-1.2,12-8
					c3-5.2,4.7-7.1,9-5.3c6.5,2.3,8.8,6.7,9.6,9.9c2.5,12.6,3.7,17.6,9.3,27.7c3,5.2,4.2,3.6,4.9,3.2c-4.7-12.2-6-17-8.2-29.8
					c0.5-2-0.3-3.7-1-6.9c-2.2-6.5-2.8-17-5.5-25.1C560.8,333.3,549.9,334.2,547.9,334.7z"/>
				<path class="st0" d="M563.1,335.5c0.5,1.3,2,6.7,3.4,16.1c1.1,5.9,1.3,6.3,2.9,12.6c0.2,0.9,0.4,2,0.1,3.3l-2.4,14.1
					c-1.5-4.2-2.3-8.7-3.5-14.4c-0.2-1.1-0.5-2.1-0.7-2.6c-0.5-1.3-2-4.3-5.7-6.5c-6.5-10-8.2-13.6-9.4-23.4
					C549.2,334.3,560.7,333.2,563.1,335.5z"/>
				<path class="st0" d="M563.7,367.1c0.4,3,0.3,6.1,0.4,7.9c-0.6,3.4-1.3,7.8-1.1,10.8c-0.3,1.6-0.2,3.3-0.3,4.7
					c-0.2,4.1,1.3,5.2,3.1,5.1c0.5-5.9,0.4-6.9,1.4-14C565.5,376.5,564.4,370.5,563.7,367.1z"/>
			</g>
		</g>
		<g>
			<path class="st8" d="M413.1,41.6c-0.7-0.4-1.2-0.9-2.1-0.6c-3.6,1,0.8,8.6,1.5,12.3c0.7,2.7,0.6,5.2,1.4,6c0.8,0.5,1.7,0,2.1-0.9
				L413.1,41.6z"/>
			<path class="st8" d="M461.2,58.4c0.4,1,1.3,1.4,2.1,0.9c0.9-0.8,0.7-3.3,1.4-6c0.7-3.7,5.1-11.3,1.5-12.3
				c-0.8-0.4-1.4,0.1-2.1,0.6L461.2,58.4z"/>
			<path class="st0" d="M438.6,82.4c2.2,0,2.8-0.1,3.7-0.5c4-1.5,10.7-6.1,15.5-13.2c2.9-3.8,5.7-22.1,6.6-28.4
				c2.7-21.9-5.1-40.5-25.9-40.4c-20.8-0.2-28.6,18.5-25.9,40.4c1,6.3,3.8,24.6,6.6,28.4c4.8,7.1,11.5,11.6,15.5,13.2
				C435.9,82.3,436.5,82.4,438.6,82.4z"/>
			<path class="st9" d="M443.9,0.4c13.4,2.4,18.9,13,20.6,24c1.5,10.8-0.5,19.7-2.5,30.9c-1.2,5.5-2.2,9.9-3.6,12.6
				c-1.6,2.7-5.2,6.8-8.4,9.4C462.3,67.4,472.1,10.1,443.9,0.4z"/>
			<path class="st9" d="M438.6,77.6c2.9,0,4.8,0.1,7.2,0.4c1.8,0.2,4.6-0.4,4.7-2.1c-4.7,1.4-9.3,0.2-10.7-3.8
				c-0.3-0.4-0.9-1.2-1.3-1.3c-0.4,0.1-1,0.9-1.3,1.3c-1.4,4.1-6,5.2-10.7,3.8c0.1,1.7,3,2.4,4.7,2.1
				C433.8,77.7,435.7,77.6,438.6,77.6z"/>
		</g>
	</g>
	<path class="st14" d="M155.8,288.6c-26.2,0.1-36.3-0.8-62.1-5.2c13.4-46.5,15.3-65,11.9-113.3c4.2-25.9,4-36-0.9-61.7
		c9.9-0.4,13.5-1.2,22.7-4.9c8.9,9.7,15.2,12.9,28.3,14.6c13-1.7,19.4-4.9,28.3-14.6c9.2,3.8,12.8,4.6,22.7,4.9
		c-4.9,25.7-5.1,35.9-0.9,61.7c-3.4,48.3-1.4,66.8,11.9,113.3C192,287.8,181.9,288.7,155.8,288.6z"/>
	<path class="st14" d="M104.9,108.4c-9.9,2.5-12.5,7.4-15.6,16.4c-6.5,22-8.8,29.7-15.2,51.7c8.9,7.3,14.3,9.2,25.9,9l6.5-18.3
		C109.8,143,110.1,132.3,104.9,108.4z"/>
</g>
<g id="Camada_2">
	<path id="test" class="st14" d="M206.8,108.4c9.9,2.5,12.5,7.4,15.6,16.4c6.5,22,8.8,29.7,15.2,51.7c-8.9,7.3-14.3,9.2-25.9,9
		l-6.5-18.3C201.9,143,201.7,132.3,206.8,108.4z"/>
</g>
</svg>
