<?xml version="1.0" encoding="UTF-8" standalone="no"?>
<!-- Generator: Adobe Illustrator 25.2.1, SVG Export Plug-In . SVG Version: 6.00 Build 0)  -->

<svg
   version="1.1"
   x="0px"
   y="0px"
   viewBox="0 0 561.09998 662.35431"
   xml:space="preserve"
   id="svg1344"
   sodipodi:docname="modelo.svg"
   width="561.09998"
   height="662.35431"
   inkscape:version="1.1.2 (0a00cf5339, 2022-02-04, custom)"
   xmlns:inkscape="http://www.inkscape.org/namespaces/inkscape"
   xmlns:sodipodi="http://sodipodi.sourceforge.net/DTD/sodipodi-0.dtd"
   xmlns="http://www.w3.org/2000/svg"
   xmlns:svg="http://www.w3.org/2000/svg"><defs
   id="defs1348">
	
	
	
	

		
		
		
		
	
		
		
		
		
	</defs><sodipodi:namedview
   id="namedview1346"
   pagecolor="#ffffff"
   bordercolor="#666666"
   borderopacity="1.0"
   inkscape:pageshadow="2"
   inkscape:pageopacity="0.0"
   inkscape:pagecheckerboard="0"
   showgrid="false"
   fit-margin-top="0"
   fit-margin-left="0"
   fit-margin-right="0"
   fit-margin-bottom="0"
   inkscape:zoom="2.36"
   inkscape:cx="157.20339"
   inkscape:cy="203.6017"
   inkscape:window-width="1366"
   inkscape:window-height="739"
   inkscape:window-x="2560"
   inkscape:window-y="672"
   inkscape:window-maximized="1"
   inkscape:current-layer="parte-frente" />
<style
   type="text/css"
   id="style1133">
	.st0{fill:#EECCAA;}
	.st1{fill:#E5C7A5;}
	.st2{fill:#E5C5A1;stroke:#E5C6A3;stroke-width:0.378;}
	.st3{fill:#E5C49F;stroke:#E5C5A1;stroke-width:0.378;}
	.st4{fill:#E5C39D;}
	.st5{fill:#E5C49F;stroke:#E5C5A1;stroke-width:0.378;stroke-opacity:0;}
	.st6{fill:#E5C49F;fill-opacity:0.5098;stroke:#E5C5A1;stroke-width:0.378;stroke-opacity:0;}
	.st7{fill:#E5C39D;stroke:#E5C5A1;stroke-width:0.378;stroke-opacity:0;}
	.st8{fill:#EECCAA;stroke:#CC9933;stroke-width:0.378;stroke-opacity:0;}
	.st9{fill:#E5C49F;}
	.st10{fill:#E5C5A1;}
	.st11{fill:#E5C6A3;}
	.st12{fill:#E5C7A5;stroke:#E5C7A5;stroke-width:0.378;}
	.st13{fill:#E5C8A7;}
	.st14{stroke:#000000;stroke-width:0.9449;}
</style>


<g
   inkscape:groupmode="layer"
   id="maneco"
   inkscape:label="maneco"
   style="display:inline"
   sodipodi:insensitive="true"><g
     id="maneco-frente"
     transform="translate(8.6)"
     inkscape:label="frente"><g
       id="g1159"
       transform="translate(-24.82288,0.6424)"><path
         class="st0"
         d="m 212.2,110.2 c -7.8,21.7 -14.5,37.7 -8.5,50 l 0.2,3.9 3.7,9.5 c 8.5,25.4 12.7,35.5 16.7,46.9 0.6,1.8 1.5,3.9 2.1,6.1 11.8,55.4 39.3,88.7 38.7,108.1 l 15.2,0.8 c -0.1,-0.5 0.8,-1.9 -1.6,-7.3 -5.3,-21.6 -7.3,-35.7 -17.3,-72.4 -2.8,-10 -4.8,-19 -9.6,-26.9 -1.7,-3 -4,-7.7 -5.1,-11.2 -3.6,-15.4 -11.2,-43.4 -16.9,-59 -0.4,-1.2 -0.5,-2.5 -0.7,-3.5 -0.4,-5.1 -1.5,-9.6 -2.4,-14.2 -3,-14.2 -6.8,-26 -14.5,-30.8 z"
         id="path1135" /><path
         class="st0"
         d="m 99.3,110.2 c 7.8,21.7 14.5,37.7 8.5,50 l -0.2,3.9 -3.7,9.5 C 95.5,199 91.3,209 87.3,220.5 c -0.6,1.8 -1.5,3.9 -2.1,6.1 C 73.4,282 45.9,315.3 46.5,334.7 l -15.2,0.8 c 0.1,-0.5 -0.8,-1.9 1.6,-7.3 5.3,-21.6 7.3,-35.7 17.3,-72.4 2.8,-10 4.8,-19 9.6,-26.9 1.7,-3 4,-7.7 5.1,-11.2 3.6,-15.4 11.2,-43.4 16.9,-59 0.4,-1.2 0.5,-2.5 0.7,-3.5 0.4,-5.1 1.5,-9.6 2.4,-14.2 2.9,-14.2 6.7,-26 14.4,-30.8 z"
         id="path1137" /><g
         id="g1145"><path
           class="st0"
           d="m 31.4,335.5 c -2.7,8.1 -3.3,18.6 -5.5,25.1 -0.8,3.2 -1.5,4.9 -1,6.9 -2.2,12.9 -3.5,17.6 -8.2,29.8 0.7,0.5 2,2 4.9,-3.2 5.7,-10.2 6.8,-15.2 9.3,-27.7 0.7,-3.2 3.1,-7.6 9.6,-9.9 4.4,-1.8 6.1,0.1 9,5.3 4.5,6.8 7.4,10.2 12,8 -5.4,-6.3 -5.2,-7.3 -8.2,-14.7 -1.9,-5.1 -0.4,-10.8 -6.7,-20.5 -2.1,-0.4 -13,-1.3 -15.2,0.9 z"
           id="path1139" /><path
           class="st0"
           d="m 46.5,334.7 c -1.2,9.8 -2.9,13.4 -9.4,23.4 -3.7,2.2 -5.2,5.2 -5.7,6.5 -0.2,0.5 -0.5,1.5 -0.7,2.6 -1.2,5.8 -2,10.3 -3.5,14.4 l -2.4,-14.1 c -0.3,-1.3 0,-2.5 0.1,-3.3 1.6,-6.3 1.8,-6.7 2.9,-12.6 1.5,-9.4 2.9,-14.8 3.4,-16.1 2.5,-2.3 14,-1.2 15.3,-0.8 z"
           id="path1141" /><path
           class="st1"
           d="m 27.2,381.6 c 1,7.2 0.9,8.1 1.4,14 1.8,0.1 3.3,-1 3.1,-5.1 0,-1.4 0,-3.1 -0.3,-4.7 0.2,-3 -0.5,-7.4 -1.1,-10.8 0.1,-1.8 0,-4.9 0.4,-7.9 -0.7,3.4 -1.8,9.4 -3.5,14.5 z"
           id="path1143" /></g><g
         id="g1153"><path
           class="st0"
           d="m 280.2,335.5 c 2.7,8.1 3.3,18.6 5.5,25.1 0.8,3.2 1.5,4.9 1,6.9 2.2,12.9 3.5,17.6 8.2,29.8 -0.7,0.5 -2,2 -4.9,-3.2 -5.7,-10.2 -6.8,-15.2 -9.3,-27.7 -0.7,-3.2 -3.1,-7.6 -9.6,-9.9 -4.4,-1.8 -6.1,0.1 -9,5.3 -4.5,6.8 -7.4,10.2 -12,8 5.4,-6.3 5.2,-7.3 8.2,-14.7 1.9,-5.1 0.4,-10.8 6.7,-20.5 2.1,-0.4 12.9,-1.3 15.2,0.9 z"
           id="path1147" /><path
           class="st0"
           d="m 265,334.6 c 1.2,9.8 2.9,13.4 9.4,23.4 3.7,2.2 5.2,5.2 5.7,6.5 0.2,0.5 0.5,1.5 0.7,2.6 1.2,5.8 2,10.3 3.5,14.4 l 2.4,-14.1 c 0.3,-1.3 0,-2.5 -0.1,-3.3 -1.6,-6.3 -1.8,-6.7 -2.9,-12.6 -1.5,-9.4 -2.9,-14.8 -3.4,-16.1 -2.5,-2.2 -13.9,-1.1 -15.3,-0.8 z"
           id="path1149" /><path
           class="st1"
           d="m 284.3,381.6 c -1,7.2 -0.9,8.1 -1.4,14 -1.8,0.1 -3.3,-1 -3.1,-5.1 0,-1.4 0,-3.1 0.3,-4.7 -0.2,-3 0.5,-7.4 1.1,-10.8 -0.1,-1.8 0,-4.9 -0.4,-7.9 0.8,3.4 1.8,9.4 3.5,14.5 z"
           id="path1151" /></g><path
         class="st2"
         d="m 77.2,228.6 c -4.8,1.4 -4.4,-1.1 -7.8,-0.5 2.6,0.5 -0.9,9 4.8,3.6 1.2,-1.1 1.8,-1.2 3,-3.1 z"
         id="path1155" /><path
         class="st2"
         d="m 234.3,228.6 c 4.8,1.4 4.4,-1.1 7.8,-0.5 -2.6,0.5 0.9,9 -4.8,3.6 -1.1,-1.1 -1.7,-1.2 -3,-3.1 z"
         id="path1157" /></g><g
       id="g1187"
       transform="translate(-24.82288,0.6424)"><path
         class="st0"
         d="m 155.8,330.9 c 1,0 1.7,0 2.8,-0.3 16.6,-17.5 36.5,-22 54,-24.5 -2.5,-12.8 -4,-16.6 -8.1,-32.8 -2.1,-9.2 -1.4,-6.6 -6.2,-24.6 -1.1,-4.4 -2.8,-14.5 -0.5,-28.6 0.7,-4.1 6.7,-37.1 8.1,-60.2 -5,-17.2 0.3,-19.9 6.7,-49.6 -4.1,-2.9 -14.4,-3.2 -20.9,-4.3 -2.1,-0.3 -4.3,-1.2 -4.9,-1.5 -0.9,-0.4 -2.1,-0.9 -3.8,-1.7 -4.4,-2.2 -9.1,-6.1 -11.5,-10.8 -1.9,-4.2 -2.2,-12.4 -1.5,-20.1 -3.6,3.1 -12.4,7.4 -14.2,7.4 -1.8,0 -10.6,-4.3 -14.2,-7.4 0.7,7.6 0.3,15.9 -1.5,20.1 -2.4,4.6 -7.1,8.6 -11.5,10.8 -1.7,0.8 -2.9,1.4 -3.8,1.7 -0.7,0.3 -2.8,1.2 -4.9,1.5 -6.5,1 -16.8,1.4 -20.9,4.3 6.4,29.7 11.7,32.4 6.7,49.6 1.4,23.1 7.4,56.1 8.1,60.2 2.3,14.1 0.6,24.2 -0.5,28.6 -4.8,18 -4.1,15.4 -6.2,24.6 -4.1,16.2 -5.6,20 -8.1,32.8 17.5,2.5 37.4,6.9 54,24.5 1,0.3 1.7,0.3 2.8,0.3 z"
         id="path1161" /><path
         class="st3"
         d="m 156.8,111 c 3.7,-3 5.2,-4 9.3,-5.7 -3.5,1.3 -4.7,1.1 -9,1.6 -4.4,-0.5 -5.6,-0.2 -9.1,-1.6 4.1,1.8 5.6,2.7 8.8,5.7 z"
         id="path1163" /><path
         class="st4"
         d="m 154.1,167.5 c -2.7,23.3 -19.6,25.6 -28.2,24.4 -13.6,-2.2 -19,-12.4 -19.9,-26.8 0.6,7.1 2.1,18.2 2.2,18.9 9.7,16.8 43.6,16.6 45.9,-16.5 z"
         id="path1165" /><path
         class="st5"
         d="m 106.4,169.4 c -0.2,-7.5 1.9,-11.1 5,-17.4 -1.3,-1.1 -1.7,-1.8 -2,-3.4 -2.1,7.6 -2.9,8.6 -3.4,16.5 z"
         id="path1167" /><path
         class="st2"
         d="m 157.7,248.3 c 0,1.3 -0.6,2.6 -2,2.6 -1.4,-0.3 -1.8,-1.7 -1.9,-2.8 0.3,-1.4 0.9,-2 1.9,-2.1 1.4,0.2 1.9,1.1 2,2.3 z"
         id="path1169" /><path
         class="st4"
         d="m 203.4,184 c 0.1,-0.7 1.6,-11.8 2.2,-18.9 -0.9,14.4 -6.3,24.5 -19.9,26.8 -8.7,1.1 -25.5,-1.2 -28.2,-24.4 2.3,33.1 36.2,33.3 45.9,16.5 z"
         id="path1171" /><path
         class="st5"
         d="m 205.5,165.1 c -0.5,-7.9 -1.2,-8.9 -3.4,-16.5 -0.3,1.6 -0.7,2.4 -2,3.4 3.1,6.3 5.2,9.9 5,17.4 z"
         id="path1173" /><path
         class="st6"
         d="m 123.2,163.3 c -3.1,0 -5.7,2.5 -5.7,5.7 0,3.2 2.4,5.7 5.7,5.7 3.3,0 5.7,-2.5 5.7,-5.7 0,-3.1 -2.6,-5.7 -5.7,-5.7 z"
         id="path1175" /><path
         class="st7"
         d="m 123,167.1 c -1,0 -1.8,0.8 -1.8,1.8 0,1 0.8,1.8 1.8,1.8 1,0 1.8,-0.8 1.8,-1.8 0.1,-1 -0.7,-1.8 -1.8,-1.8 z"
         id="path1177" /><path
         class="st6"
         d="m 187.9,163.3 c 3.1,0 5.7,2.5 5.7,5.7 0,3.2 -2.4,5.7 -5.7,5.7 -3.3,0 -5.7,-2.5 -5.7,-5.7 0,-3.1 2.5,-5.7 5.7,-5.7 z"
         id="path1179" /><path
         class="st7"
         d="m 188,167.1 c 1,0 1.8,0.8 1.8,1.8 0,1 -0.8,1.8 -1.8,1.8 -1,0 -1.8,-0.8 -1.8,-1.8 0,-1 0.8,-1.8 1.8,-1.8 z"
         id="path1181" /><path
         class="st3"
         d="m 129.7,219.4 c 2.6,5.2 4.5,7.4 5.4,14 0.6,4.9 -2.3,7.2 -2.5,15.4 0,8.9 0.4,13.4 2.3,22.6 -3.2,-10.1 -4.5,-18.7 -2.5,-35.2 0.5,-7.2 0,-9.6 -2.7,-16.8 z"
         id="path1183" /><path
         class="st3"
         d="m 181.8,219.4 c -2.6,5.2 -4.5,7.4 -5.4,14 -0.6,4.9 2.3,7.2 2.5,15.4 0,8.9 -0.4,13.4 -2.3,22.6 3.2,-10.1 4.5,-18.7 2.5,-35.2 -0.4,-7.2 0,-9.6 2.7,-16.8 z"
         id="path1185" /></g><g
       id="g1203"
       transform="translate(-24.82288,0.6424)"><path
         class="st8"
         d="m 130.2,41.6 c -0.7,-0.4 -1.2,-0.9 -2.1,-0.6 -3.6,1 0.8,8.6 1.5,12.3 0.7,2.7 0.6,5.2 1.4,6 0.8,0.5 1.7,0 2.1,-0.9 z"
         id="path1189" /><path
         class="st4"
         d="m 149.8,80.7 20,-5.9 c -0.3,4.2 -0.2,8.2 0.2,10.7 -4.7,-3.2 -10.5,-2.3 -17.9,-3.7 z"
         id="path1191" /><path
         class="st8"
         d="m 178.3,58.4 c 0.4,1 1.3,1.4 2.1,0.9 0.9,-0.8 0.7,-3.3 1.4,-6 0.7,-3.7 5.1,-11.3 1.5,-12.3 -0.8,-0.4 -1.4,0.1 -2.1,0.6 z"
         id="path1193" /><path
         class="st0"
         d="m 155.8,82.4 c 2.2,0 2.8,-0.1 3.7,-0.5 4,-1.5 10.7,-6.1 15.5,-13.2 2.9,-3.8 5.7,-22.1 6.6,-28.4 2.7,-21.9 -5.1,-40.5 -25.9,-40.4 -20.8,-0.2 -28.6,18.5 -25.9,40.4 1,6.3 3.8,24.6 6.6,28.4 4.8,7.1 11.5,11.6 15.5,13.2 1.1,0.4 1.7,0.5 3.9,0.5 z"
         id="path1195" /><path
         class="st9"
         d="m 161,0.4 c 13.6,2.3 18.9,13 20.6,24 1.4,10.3 -0.3,19.7 -2.5,30.9 -1.1,5.4 -2.1,9.6 -3.6,12.6 -1.5,2.7 -5.2,6.8 -8.4,9.3 C 178.7,70.7 188.7,6.9 161,0.4 Z"
         id="path1197" /><path
         class="st10"
         d="m 129.5,43.5 c -3.9,-3.1 -0.2,4.1 0.2,5.1 1.1,1.7 0.7,3.7 0.9,4.7 0.2,1 0.3,1.4 0.6,1.8 0.5,0.7 0.1,-1.5 1.2,-1.8 0.2,-2.1 -1.8,-6.1 -2.9,-9.8 z"
         id="path1199" /><path
         class="st10"
         d="m 179.2,53.4 c 1,0.2 0.7,2.5 1.2,1.8 0.2,-0.4 0.4,-0.8 0.6,-1.8 0.3,-1 -0.1,-3 0.9,-4.7 0.4,-1 4.1,-8.1 0.2,-5.1 -1.1,3.6 -3.1,7.6 -2.9,9.8 z"
         id="path1201" /></g><g
       id="g1245"
       transform="translate(-24.82288,0.6424)"><path
         class="st0"
         d="m 164.3,394.3 c 1.5,10.4 1.8,11.4 2.4,17.3 1.3,20.6 2.1,29.6 4.7,44.6 0.7,4.3 2.4,32.6 5.5,45.5 0.4,2.3 0.2,8.6 0.2,10.2 -1.1,10.5 -3.9,29.8 0.9,48.4 1.3,6.3 1.8,13.2 2.8,20.1 0.7,4.9 3.4,23.5 3.7,42.7 0.4,3.1 -2.8,6.2 -0.2,11.7 9.3,-0.9 14.9,0.4 17.1,0.9 2.1,-7.5 -1.8,-4.8 -0.7,-15.8 2.5,-14.5 15.5,-76.6 12,-100.2 -1.8,-9.3 -3.6,-20.5 -4.6,-29.9 -0.8,-10 -1.4,-18 -0.7,-27.6 0.3,-4.6 2.7,-16.5 3.4,-21 3.2,-27.2 4.2,-33.2 5.8,-61 0.3,-24.2 0.7,-35.8 -1.7,-56.7 -0.8,-7.4 -1.2,-11.1 -2.5,-17.4 -10.9,-3.2 -33.5,1.3 -54,24.1 -0.5,24.6 3.8,52.1 5.9,64.1 z"
         id="path1205" /><path
         class="st0"
         d="m 153,330.2 c -20.6,-22.8 -43.2,-27.4 -54,-24.1 -1.2,6.4 -1.7,10 -2.5,17.4 -2.4,20.9 -1.9,32.5 -1.7,56.7 1.7,27.7 2.6,33.8 5.8,61 0.7,4.5 3,16.4 3.4,21 0.7,9.6 0.1,17.6 -0.7,27.6 -1.1,9.5 -2.8,20.7 -4.6,29.9 -3.5,23.6 9.5,85.7 12,100.2 1.1,11 -2.8,8.3 -0.7,15.8 2.2,-0.6 7.9,-1.8 17.1,-0.9 2.6,-5.5 -0.5,-8.6 -0.2,-11.7 0.3,-19.2 3,-37.8 3.7,-42.7 1,-6.9 1.5,-13.8 2.8,-20.1 4.8,-18.6 2,-37.9 0.9,-48.4 0,-1.6 -0.2,-7.9 0.2,-10.2 3.2,-12.9 4.9,-41.2 5.5,-45.5 2.6,-15 3.5,-24 4.7,-44.6 0.5,-5.9 0.8,-6.9 2.4,-17.3 2.3,-12 6.6,-39.5 5.9,-64.1 z"
         id="path1207" /><path
         class="st10"
         d="m 187.4,469 c 5.9,-0.7 13.9,9.6 14.9,10.2 0.9,-1.5 -13.5,-10.6 -13.9,-16.2 -4.6,7.7 -10.3,8.9 -11.3,13.8 1.9,-4.1 5.9,-7.4 10.3,-7.8 z"
         id="path1209" /><path
         class="st10"
         d="m 184.3,490 c 3.1,-0.2 7,-0.5 7.3,1.8 -2.6,-0.1 -4,-0.5 -7.3,-1.8 z"
         id="path1211" /><path
         class="st10"
         d="m 183.8,510.5 c 0.8,2.9 1,4.9 1.1,7.6 1.8,-2.2 3.8,-3.9 8.2,-6.7 1.1,-1 4.8,-5.9 1,-2 -3.2,2.4 -7,-0.1 -12,-3.2 0,0.7 1.8,3.5 1.7,4.3 z"
         id="path1213" /><path
         class="st11"
         d="m 188.2,514.8 c -3.2,3.1 0.8,15.4 -1.1,52.3 0.5,-34.6 -2.2,-45.1 -2.2,-50.2 -0.1,-0.9 3.1,-2.4 3.3,-2.1 z"
         id="path1215" /><path
         class="st10"
         d="m 134.5,476.7 c -1.1,-4.8 -6.8,-6 -11.3,-13.8 -0.4,5.6 -14.8,14.8 -13.9,16.2 1,-0.6 9,-10.9 14.9,-10.2 4.4,0.5 8.4,3.8 10.3,7.8 z"
         id="path1217" /><path
         class="st10"
         d="m 119.9,491.9 c 0.3,-2.3 4.2,-2 7.3,-1.8 -3.3,1.2 -4.7,1.6 -7.3,1.8 z"
         id="path1219" /><path
         class="st10"
         d="m 129.4,506 c -5,3.2 -8.8,5.6 -12,3.2 -3.7,-3.9 0,1 1,2 4.4,2.8 6.4,4.5 8.2,6.7 0.1,-2.7 0.4,-4.6 1.1,-7.6 -0.1,-0.6 1.7,-3.4 1.7,-4.3 z"
         id="path1221" /><path
         class="st11"
         d="m 126.6,516.8 c 0,5.2 -2.6,15.6 -2.2,50.2 -1.9,-36.9 2.1,-49.2 -1.1,-52.3 0.2,-0.2 3.4,1.3 3.3,2.1 z"
         id="path1223" /><path
         class="st9"
         d="m 153,330.6 c -14.6,-20.8 -29.3,-33.1 -38,-32.3 9.5,-0.7 29,20.7 33.6,35.8 1.3,4.2 3.6,19 3.3,26.3 0.9,-11 1.1,-19.8 1.1,-29.8 z"
         id="path1225" /><path
         class="st9"
         d="m 158.6,330.6 c 14.6,-20.8 29.3,-33.1 38,-32.3 -9.5,-0.7 -29,20.7 -33.6,35.8 -1.3,4.2 -3.6,19 -3.3,26.3 -1,-11 -1.2,-19.8 -1.1,-29.8 z"
         id="path1227" /><g
         id="g1235"><path
           class="st0"
           d="m 127.2,634.8 c 1,9 2.9,9.9 4,14.4 2.2,5 2.5,5.5 2.8,8.6 0.2,5 -9,4.4 -13.7,3.7 -4.9,0.2 -9.3,1.4 -18.7,-1.2 -2.5,-1.7 0,-5.3 0.6,-6.1 4.1,-5.6 8,-15.6 7.9,-18.5 3.1,-1.8 11.8,-2.3 17.1,-0.9 z"
           id="path1229" /><path
           class="st10"
           d="m 133.1,654.9 c -2.7,-1.4 -5.8,-1.8 -9.2,-0.5 -1.7,0.8 -2.6,2.2 -3.3,3.8 0,-2 -0.9,-3 -3.6,-3.4 5.6,-2.5 13,-2.6 16.1,0.1 z"
           id="path1231" /><path
           class="st10"
           d="m 122.3,661.8 c -0.7,-0.1 -1.8,-0.2 -2.1,-0.3 -10.7,1.2 -15.8,-0.4 -18.7,-1.2 3.2,0.6 1.2,-3.2 3,-5.1 -0.7,1.4 -0.6,3.1 -0.4,4 0.2,1.3 1.3,1.8 3.1,1.7 0.5,-1.4 0.1,-3.6 2.6,-4.8 -1.4,1.2 -2.9,4.2 -0.6,5.1 0.8,0.3 3.1,0.5 4,-0.3 0.8,-0.6 0.2,-2.8 2.1,-4.1 -1.1,1.4 -1.3,2.1 -1.1,3 0,0.6 0.8,1.5 1.5,1.5 2.1,0.2 3.4,0.4 5,-1.8 0.4,0.9 0.8,1.6 1.6,2.3 z"
           id="path1233" /></g><g
         id="g1243"><path
           class="st0"
           d="m 201.5,635.8 c -0.1,2.9 3.9,12.9 7.9,18.5 0.6,0.8 3.1,4.3 0.6,6.1 -9.4,2.5 -13.8,1.4 -18.7,1.2 -4.6,0.7 -13.8,1.3 -13.7,-3.7 0.3,-3.1 0.5,-3.6 2.8,-8.6 1,-4.5 3,-5.4 4,-14.4 5.2,-1.5 14,-1 17.1,0.9 z"
           id="path1237" /><path
           class="st10"
           d="m 194.6,654.8 c -2.7,0.3 -3.6,1.4 -3.6,3.4 -0.8,-1.7 -1.7,-3 -3.3,-3.8 -3.3,-1.3 -6.5,-0.9 -9.2,0.5 3,-2.7 10.4,-2.6 16.1,-0.1 z"
           id="path1239" /><path
           class="st10"
           d="m 190.9,659.6 c 1.6,2.2 2.9,2 5,1.8 0.7,0 1.4,-0.9 1.5,-1.5 0.2,-0.9 0,-1.6 -1.1,-3 1.9,1.3 1.3,3.5 2.1,4.1 0.9,0.8 3.2,0.6 4,0.3 2.3,-0.9 0.8,-3.9 -0.6,-5.1 2.5,1.1 2.1,3.3 2.6,4.8 1.8,0.1 2.9,-0.4 3.1,-1.7 0.1,-1 0.2,-2.7 -0.4,-4 1.8,1.9 -0.3,5.7 3,5.1 -3,0.8 -8,2.4 -18.7,1.2 -0.2,0 -1.3,0.2 -2.1,0.3 0.8,-0.8 1.2,-1.5 1.6,-2.3 z"
           id="path1241" /></g></g></g><g
     id="maneco-costa"
     transform="translate(8)"
     inkscape:label="costa"><g
       id="g1259"
       transform="translate(-24.82288,0.6424)"><path
         class="st0"
         d="m 438.7,330.9 c 1,0 1.7,0 2.8,-0.3 16.6,-17.5 36.5,-22 54,-24.5 -2.5,-12.8 -4,-16.6 -8.1,-32.8 -2.1,-9.2 -1.4,-6.6 -6.2,-24.6 -1.1,-4.4 -2.8,-14.5 -0.5,-28.6 0.7,-4.1 6.7,-37.1 8.1,-60.2 -5,-17.2 0.3,-19.9 6.7,-49.6 -4.1,-2.9 -14.4,-3.2 -20.9,-4.3 -2.1,-0.3 -4.3,-1.2 -4.9,-1.5 -0.9,-0.4 -2.1,-0.9 -3.8,-1.7 -4.4,-2.2 -9.1,-6.1 -11.5,-10.8 -1.9,-4.2 -2.2,-12.4 -1.5,-20.1 -3.6,3.1 -12.4,7.4 -14.2,7.4 -1.8,0 -10.6,-4.3 -14.2,-7.4 0.7,7.6 0.3,15.9 -1.5,20.1 -2.4,4.6 -7.1,8.6 -11.5,10.8 -1.7,0.8 -2.9,1.4 -3.8,1.7 -0.7,0.3 -2.8,1.2 -4.9,1.5 -6.5,1 -16.8,1.4 -20.9,4.3 6.4,29.7 11.7,32.4 6.7,49.6 1.4,23.1 7.4,56.1 8.1,60.2 2.3,14.1 0.6,24.2 -0.5,28.6 -4.8,18 -4.1,15.4 -6.2,24.6 -4.1,16.2 -5.6,20 -8.1,32.8 17.5,2.5 37.4,6.9 54,24.5 1,0.3 1.7,0.3 2.8,0.3 z"
         id="path1249" /><path
         class="st11"
         d="m 419.2,136.7 c -0.6,15.3 -4.5,22.9 -16.5,32.2 13.9,-5.7 20.1,-17.5 16.5,-32.2 z"
         id="path1251" /><path
         class="st11"
         d="m 458.1,136.7 c 0.6,15.3 4.5,22.9 16.5,32.2 -13.9,-5.7 -20.1,-17.5 -16.5,-32.2 z"
         id="path1253" /><path
         class="st11"
         d="m 411.3,285.8 c 4,0.9 5.4,1.1 9.4,1.2 -0.5,4 -9.9,2.7 -9.4,-1.2 z"
         id="path1255" /><path
         class="st11"
         d="m 466,285.8 c -4,0.9 -5.4,1.1 -9.4,1.2 0.5,4 9.9,2.7 9.4,-1.2 z"
         id="path1257" /></g><g
       id="g1295"
       transform="translate(-24.82288,0.6424)"><g
         id="g1265"><path
           class="st12"
           d="m 410,634.8 c 1,9 2.9,9.9 4,14.4 2.2,5 2.5,5.5 2.8,8.6 0.2,5 -9,4.4 -13.7,3.7 -4.9,0.2 -9.3,1.4 -18.7,-1.2 -2.5,-1.7 0,-5.3 0.6,-6.1 4.1,-5.6 8,-15.6 7.9,-18.5 3.2,-1.8 11.9,-2.3 17.1,-0.9 z"
           id="path1261" /><path
           class="st0"
           d="m 410,629.2 c -2.6,5 2.3,14.1 2.8,17.5 5.1,20.1 -24.6,18.9 -24.7,6.6 1.4,-6 1.7,-1.7 4.6,-11.8 0.7,-3.9 0.3,-11.8 0.7,-13.8 4.2,-2.4 12.9,-0.3 16.6,1.5 z"
           id="path1263" /></g><g
         id="g1271"><path
           class="st12"
           d="m 484.4,635.8 c -0.1,2.9 3.9,12.9 7.9,18.5 0.6,0.8 3.1,4.3 0.6,6.1 -9.4,2.5 -13.8,1.4 -18.7,1.2 -4.6,0.7 -13.8,1.3 -13.7,-3.7 0.3,-3.1 0.5,-3.6 2.8,-8.6 1,-4.5 3,-5.4 4,-14.4 5.2,-1.5 13.9,-1 17.1,0.9 z"
           id="path1267" /><path
           class="st0"
           d="m 483.9,627.6 c 0.5,2 0,9.9 0.7,13.8 2.9,10.1 3.2,5.8 4.6,11.8 -0.1,12.3 -29.8,13.6 -24.7,-6.6 0.5,-3.4 5.3,-12.5 2.8,-17.5 3.7,-1.7 12.4,-3.8 16.6,-1.5 z"
           id="path1269" /></g><path
         class="st0"
         d="m 435.9,330.2 c -20.6,-22.8 -43.2,-27.4 -54,-24.1 -1.2,6.4 -1.7,10 -2.5,17.4 -2.4,20.9 -1.9,32.5 -1.7,56.7 1.7,27.7 2.6,33.8 5.8,61 0.7,4.5 3,16.4 3.4,21 0.7,9.6 0.1,17.6 -0.7,27.6 -1.1,9.5 -2.8,20.7 -4.6,29.9 -3.5,23.6 9.5,85.7 12,100.2 1.1,11 -2.8,8.3 -0.7,15.8 2.2,-0.6 7.9,-1.8 17.1,-0.9 2.6,-5.5 -0.5,-8.6 -0.2,-11.7 0.3,-19.2 3,-37.8 3.7,-42.7 1,-6.9 1.5,-13.8 2.8,-20.1 4.8,-18.6 2,-37.9 0.9,-48.4 0,-1.6 -0.2,-7.9 0.2,-10.2 3.2,-12.9 4.9,-41.2 5.5,-45.5 2.6,-15 3.5,-24 4.7,-44.6 0.5,-5.9 0.8,-6.9 2.4,-17.3 2.2,-12 6.6,-39.5 5.9,-64.1 z"
         id="path1273" /><path
         class="st0"
         d="m 447.1,394.3 c 1.5,10.4 1.8,11.4 2.4,17.3 1.3,20.6 2.1,29.6 4.7,44.6 0.7,4.3 2.4,32.6 5.5,45.5 0.4,2.3 0.2,8.6 0.2,10.2 -1.1,10.5 -3.9,29.8 0.9,48.4 1.3,6.3 1.8,13.2 2.8,20.1 0.7,4.9 3.4,23.5 3.7,42.7 0.4,3.1 -2.8,6.2 -0.2,11.7 9.3,-0.9 14.9,0.4 17.1,0.9 2.1,-7.5 -1.8,-4.8 -0.7,-15.8 2.5,-14.5 15.5,-76.6 12,-100.2 -1.8,-9.3 -3.6,-20.5 -4.6,-29.9 -0.8,-10 -1.4,-18 -0.7,-27.6 0.3,-4.6 2.7,-16.5 3.4,-21 3.2,-27.2 4.2,-33.2 5.8,-61 0.3,-24.2 0.7,-35.8 -1.7,-56.7 -0.8,-7.4 -1.2,-11.1 -2.5,-17.4 -10.9,-3.2 -33.5,1.3 -54,24.1 -0.5,24.6 3.9,52.1 5.9,64.1 z"
         id="path1275" /><path
         class="st13"
         d="m 383.2,558 c 5.6,37.9 9.6,55.5 10.4,61.9 1.2,10.9 -2.9,8.3 -0.7,15.8 0.3,5.8 -2.7,11.6 -1.2,16.6 0.7,4.4 2.9,3.5 5.6,0.3 2,-2.7 2.9,-10.4 2.2,-20.8 -0.9,-18.1 -4.2,-31.5 -16.3,-73.8 z"
         id="path1277" /><path
         class="st13"
         d="m 494.1,558 c -5.6,37.9 -9.6,55.5 -10.4,61.9 -1.2,10.9 2.9,8.3 0.7,15.8 -0.3,5.8 2.7,11.6 1.2,16.6 -0.7,4.4 -2.9,3.5 -5.6,0.3 -2,-2.7 -2.9,-10.4 -2.2,-20.8 0.9,-18.1 4.2,-31.5 16.3,-73.8 z"
         id="path1279" /><path
         class="st11"
         d="m 409.7,495.6 c -5.2,-1.9 -8,-1.9 -13.2,0 5.2,1.4 6.3,5.6 13.2,0 z"
         id="path1281" /><path
         class="st11"
         d="m 467.6,495.6 c 5.2,-1.9 8,-1.9 13.2,0 -5.2,1.4 -6.3,5.6 -13.2,0 z"
         id="path1283" /><path
         class="st11"
         d="m 438.6,330.4 c 6.6,19.4 34.9,27.3 55.1,5.3 -16.7,15.3 -55,19.1 -55.1,-22.3 -0.1,41.4 -38.3,37.6 -55.1,22.3 20.2,22 48.5,14.1 55.1,-5.3 z"
         id="path1285" /><path
         class="st1"
         d="m 436.1,333.9 c -0.4,2.6 -0.1,5.8 -0.3,8.6 -4.7,0.9 -7.5,0.8 -12,2.5 5.3,-3.1 8.4,-6.5 12.3,-11.1 z"
         id="path1287" /><path
         class="st1"
         d="m 441.2,333.9 c 0.4,2.6 0.1,5.8 0.3,8.6 4.7,0.9 7.5,0.8 12,2.5 -5.3,-3.1 -8.4,-6.5 -12.3,-11.1 z"
         id="path1289" /><path
         class="st1"
         d="m 464.1,582.9 c 5.3,29.7 13.7,51.5 6.6,68.6 -1.3,3.1 -2.6,2 -4.8,0.5 -0.9,-0.5 -1.8,-3.3 -1.6,-4.2 -0.4,-3.1 2.5,-4.6 2.9,-13.1 -2.6,-5.8 0.6,-8.4 0.2,-11.8 -0.2,-12.8 -1.1,-22.2 -3.3,-40 z"
         id="path1291" /><path
         class="st1"
         d="m 413.2,582.9 c -5.3,29.7 -13.7,51.5 -6.6,68.6 1.3,3.1 2.6,2 4.8,0.5 0.9,-0.5 1.8,-3.3 1.6,-4.2 0.4,-3.1 -2.5,-4.6 -2.9,-13.1 2.6,-5.8 -0.6,-8.4 -0.2,-11.8 0.2,-12.8 1.1,-22.2 3.3,-40 z"
         id="path1293" /></g><g
       id="g1321"
       transform="translate(-24.82288,0.6424)"><path
         class="st0"
         d="m 495.1,110.2 c -7.8,21.7 -14.5,37.7 -8.5,50 l 0.2,3.9 3.7,9.5 c 8.5,25.4 12.7,35.5 16.7,46.9 0.6,1.8 1.5,3.9 2.1,6.1 11.8,55.4 39.3,88.7 38.7,108.1 l 15.2,0.8 c -0.1,-0.5 0.8,-1.9 -1.6,-7.3 -5.3,-21.6 -7.3,-35.7 -17.3,-72.4 -2.8,-10 -4.8,-19 -9.6,-26.9 -1.7,-3 -4,-7.7 -5.1,-11.2 -3.6,-15.4 -11.2,-43.4 -16.9,-59 -0.4,-1.2 -0.5,-2.5 -0.7,-3.5 -0.4,-5.1 -1.5,-9.6 -2.4,-14.2 -3,-14.2 -6.8,-26 -14.5,-30.8 z"
         id="path1297" /><path
         class="st0"
         d="m 382.2,110.2 c 7.8,21.7 14.5,37.7 8.5,50 l -0.2,3.9 -3.7,9.5 c -8.5,25.4 -12.7,35.5 -16.7,46.9 -0.6,1.8 -1.5,3.9 -2.1,6.1 -11.8,55.4 -39.3,88.7 -38.7,108.1 l -15.2,0.8 c 0.1,-0.5 -0.8,-1.9 1.6,-7.3 5.3,-21.6 7.3,-35.7 17.3,-72.4 2.8,-10 4.8,-19 9.6,-26.9 1.7,-3 4,-7.7 5.1,-11.2 3.6,-15.4 11.2,-43.4 16.9,-59 0.4,-1.2 0.5,-2.5 0.7,-3.5 0.4,-5.1 1.5,-9.6 2.4,-14.2 3,-14.2 6.8,-26 14.5,-30.8 z"
         id="path1299" /><g
         id="g1307"><path
           class="st13"
           d="m 314.2,335.5 c -2.7,8.1 -3.3,18.6 -5.5,25.1 -0.8,3.2 -1.5,4.9 -1,6.9 -2.2,12.9 -3.5,17.6 -8.2,29.8 0.7,0.5 2,2 4.9,-3.2 5.7,-10.2 6.8,-15.2 9.3,-27.7 0.7,-3.2 3.1,-7.6 9.6,-9.9 4.4,-1.8 6.1,0.1 9,5.3 4.5,6.8 7.4,10.2 12,8 -5.4,-6.3 -5.2,-7.3 -8.2,-14.7 -1.9,-5.1 -0.3,-10.8 -6.7,-20.5 -2,-0.4 -12.9,-1.3 -15.2,0.9 z"
           id="path1301" /><path
           class="st0"
           d="m 329.4,334.7 c -1.2,9.8 -2.9,13.4 -9.4,23.4 -3.7,2.2 -5.2,5.2 -5.7,6.5 -0.2,0.5 -0.5,1.5 -0.7,2.6 -1.2,5.8 -2,10.3 -3.5,14.4 l -2.4,-14.1 c -0.3,-1.3 0,-2.5 0.1,-3.3 1.6,-6.3 1.8,-6.7 2.9,-12.6 1.5,-9.4 2.9,-14.8 3.4,-16.1 2.5,-2.3 14,-1.2 15.3,-0.8 z"
           id="path1303" /><path
           class="st0"
           d="m 310.1,381.6 c 1,7.2 0.9,8.1 1.4,14 1.8,0.1 3.3,-1 3.1,-5.1 0,-1.4 0,-3.1 -0.3,-4.7 0.2,-3 -0.5,-7.4 -1.1,-10.8 0.1,-1.8 0,-4.9 0.4,-7.9 -0.7,3.4 -1.8,9.4 -3.5,14.5 z"
           id="path1305" /></g><path
         class="st10"
         d="m 520.8,229.3 4.6,5.7 c -0.3,2.5 -3,2.4 -5,0.9 -0.1,-3.9 -2.7,-5.9 -2.8,-9.8 z"
         id="path1309" /><path
         class="st10"
         d="m 355.9,229.3 -4.6,5.7 c 0.3,2.5 3,2.4 5,0.9 0.1,-3.9 2.7,-5.9 2.8,-9.8 z"
         id="path1311" /><g
         id="g1319"><path
           class="st13"
           d="m 547.9,334.7 c -6.4,9.7 -4.8,15.5 -6.7,20.5 -3,7.4 -2.8,8.3 -8.2,14.7 4.5,2.2 7.4,-1.2 12,-8 3,-5.2 4.7,-7.1 9,-5.3 6.5,2.3 8.8,6.7 9.6,9.9 2.5,12.6 3.7,17.6 9.3,27.7 3,5.2 4.2,3.6 4.9,3.2 -4.7,-12.2 -6,-17 -8.2,-29.8 0.5,-2 -0.3,-3.7 -1,-6.9 -2.2,-6.5 -2.8,-17 -5.5,-25.1 -2.3,-2.3 -13.2,-1.4 -15.2,-0.9 z"
           id="path1313" /><path
           class="st0"
           d="m 563.1,335.5 c 0.5,1.3 2,6.7 3.4,16.1 1.1,5.9 1.3,6.3 2.9,12.6 0.2,0.9 0.4,2 0.1,3.3 l -2.4,14.1 c -1.5,-4.2 -2.3,-8.7 -3.5,-14.4 -0.2,-1.1 -0.5,-2.1 -0.7,-2.6 -0.5,-1.3 -2,-4.3 -5.7,-6.5 -6.5,-10 -8.2,-13.6 -9.4,-23.4 1.4,-0.4 12.9,-1.5 15.3,0.8 z"
           id="path1315" /><path
           class="st0"
           d="m 563.7,367.1 c 0.4,3 0.3,6.1 0.4,7.9 -0.6,3.4 -1.3,7.8 -1.1,10.8 -0.3,1.6 -0.2,3.3 -0.3,4.7 -0.2,4.1 1.3,5.2 3.1,5.1 0.5,-5.9 0.4,-6.9 1.4,-14 -1.7,-5.1 -2.8,-11.1 -3.5,-14.5 z"
           id="path1317" /></g></g><g
       id="g1333"
       transform="translate(-24.82288,0.6424)"><path
         class="st8"
         d="m 413.1,41.6 c -0.7,-0.4 -1.2,-0.9 -2.1,-0.6 -3.6,1 0.8,8.6 1.5,12.3 0.7,2.7 0.6,5.2 1.4,6 0.8,0.5 1.7,0 2.1,-0.9 z"
         id="path1323" /><path
         class="st8"
         d="m 461.2,58.4 c 0.4,1 1.3,1.4 2.1,0.9 0.9,-0.8 0.7,-3.3 1.4,-6 0.7,-3.7 5.1,-11.3 1.5,-12.3 -0.8,-0.4 -1.4,0.1 -2.1,0.6 z"
         id="path1325" /><path
         class="st0"
         d="m 438.6,82.4 c 2.2,0 2.8,-0.1 3.7,-0.5 4,-1.5 10.7,-6.1 15.5,-13.2 2.9,-3.8 5.7,-22.1 6.6,-28.4 2.7,-21.9 -5.1,-40.5 -25.9,-40.4 -20.8,-0.2 -28.6,18.5 -25.9,40.4 1,6.3 3.8,24.6 6.6,28.4 4.8,7.1 11.5,11.6 15.5,13.2 1.2,0.4 1.8,0.5 3.9,0.5 z"
         id="path1327" /><path
         class="st9"
         d="m 443.9,0.4 c 13.4,2.4 18.9,13 20.6,24 1.5,10.8 -0.5,19.7 -2.5,30.9 -1.2,5.5 -2.2,9.9 -3.6,12.6 -1.6,2.7 -5.2,6.8 -8.4,9.4 12.3,-9.9 22.1,-67.2 -6.1,-76.9 z"
         id="path1329" /><path
         class="st9"
         d="m 438.6,77.6 c 2.9,0 4.8,0.1 7.2,0.4 1.8,0.2 4.6,-0.4 4.7,-2.1 -4.7,1.4 -9.3,0.2 -10.7,-3.8 -0.3,-0.4 -0.9,-1.2 -1.3,-1.3 -0.4,0.1 -1,0.9 -1.3,1.3 -1.4,4.1 -6,5.2 -10.7,3.8 0.1,1.7 3,2.4 4.7,2.1 2.6,-0.3 4.5,-0.4 7.4,-0.4 z"
         id="path1331" /></g></g></g><g
   id="partes"
   inkscape:label="partes"
   style="display:inline;fill-opacity:1"><g
     inkscape:groupmode="layer"
     id="parte-frente"
     inkscape:label="frente"
     style="fill-opacity:1"><g
       inkscape:groupmode="layer"
       id="parte-frente-logos"
       inkscape:label="logos"
       style="fill-opacity:1"><rect
         style="fill-opacity:1;stroke-width:2.80484"
         id="rect3312"
         width="76.610291"
         height="75.697014"
         x="102.09921"
         y="138.9709"
         inkscape:label="peito" /></g><g
       inkscape:groupmode="layer"
       id="layer5"
       inkscape:label="detalhes" /><path
       class="st14"
       d="m 138.87712,288.5424 c -26.2,0.1 -36.3,-0.8 -62.1,-5.2 13.4,-46.5 15.3,-65 11.9,-113.3 4.2,-25.9 4,-36 -0.9,-61.7 9.9,-0.4 13.5,-1.2 22.7,-4.9 8.9,9.7 15.2,12.9 28.3,14.6 13,-1.7 19.4,-4.9 28.3,-14.6 9.2,3.8 12.8,4.6 22.7,4.9 -4.9,25.7 -5.1,35.9 -0.9,61.7 -3.4,48.3 -1.4,66.8 11.9,113.3 -25.7,4.4 -35.8,5.3 -61.9,5.2 z"
       id="path1337"
       style="fill-opacity:1;stroke:#000000;stroke-width:0.945;stroke-miterlimit:4;stroke-dasharray:none"
       inkscape:label="tronco" /></g><path
     class="st14"
     d="m 87.97712,108.3424 c -9.9,2.5 -12.5,7.4 -15.6,16.4 -6.5,22 -8.8,29.7 -15.2,51.7 8.9,7.3 15.139088,9.27783 26.739088,9.07783 L 89.57712,167.1424 c 3.3,-24.2 3.6,-34.9 -1.6,-58.8 z"
     id="path1339"
     style="fill-opacity:1;stroke:#000000;stroke-width:0.9449"
     sodipodi:nodetypes="cccccc"
     inkscape:label="manga_esq" /><path
     id="test"
     class="st14"
     d="m 189.77712,108.3424 c 9.9,2.5 12.5,7.4 15.6,16.4 6.5,22 8.8,29.7 15.2,51.7 -8.9,7.3 -14.3,9.2 -25.9,9 l -6.5,-18.3 c -3.3,-24.2 -3.5,-34.9 1.6,-58.8 z"
     inkscape:label="manga_dir"
     style="fill-opacity:1" /></g></svg>
